<mxfile host="Electron" modified="2024-03-06T11:31:40.503Z" agent="Mozilla/5.0 (X11; Linux x86_64) AppleWebKit/537.36 (KHTML, like Gecko) draw.io/22.1.21 Chrome/120.0.6099.291 Electron/28.2.5 Safari/537.36" etag="TA2Y8JaQ5Mw6X4WszJvd" version="22.1.21" type="device">
  <diagram id="C5RBs43oDa-KdzZeNtuy" name="Page-1">
    <mxGraphModel dx="1434" dy="999" grid="0" gridSize="10" guides="1" tooltips="1" connect="1" arrows="1" fold="1" page="1" pageScale="1" pageWidth="1169" pageHeight="827" math="0" shadow="0">
      <root>
        <mxCell id="WIyWlLk6GJQsqaUBKTNV-0" />
        <mxCell id="WIyWlLk6GJQsqaUBKTNV-1" parent="WIyWlLk6GJQsqaUBKTNV-0" />
        <mxCell id="uKcMFkma33SuD5zO_-8G-0" value="MLD Site de recherche d&#39;appart" style="text;html=1;align=center;verticalAlign=middle;resizable=0;points=[];autosize=1;strokeColor=none;fillColor=none;fontSize=16;" parent="WIyWlLk6GJQsqaUBKTNV-1" vertex="1">
          <mxGeometry width="253" height="31" as="geometry" />
        </mxCell>
        <mxCell id="Wz3WdkC-JqPtlDwZwZMD-0" value="" style="group" parent="WIyWlLk6GJQsqaUBKTNV-1" vertex="1" connectable="0">
          <mxGeometry x="10" y="309" width="1149.71" height="488.75" as="geometry" />
        </mxCell>
        <mxCell id="zkfFHV4jXpPFQw0GAbJ--0" value="T_Appartment" style="swimlane;fontStyle=0;align=center;verticalAlign=top;childLayout=stackLayout;horizontal=1;startSize=26;horizontalStack=0;resizeParent=1;resizeLast=0;collapsible=1;marginBottom=0;rounded=0;shadow=0;strokeWidth=1;fontSize=10;" parent="Wz3WdkC-JqPtlDwZwZMD-0" vertex="1">
          <mxGeometry x="322.81123711340206" y="142.23252496433668" width="111.55463917525773" height="134.7660485021398" as="geometry">
            <mxRectangle x="230" y="140" width="160" height="26" as="alternateBounds" />
          </mxGeometry>
        </mxCell>
        <mxCell id="zkfFHV4jXpPFQw0GAbJ--1" value="id_appart" style="text;align=left;verticalAlign=top;spacingLeft=4;spacingRight=4;overflow=hidden;rotatable=0;points=[[0,0.5],[1,0.5]];portConstraint=eastwest;fontSize=10;" parent="zkfFHV4jXpPFQw0GAbJ--0" vertex="1">
          <mxGeometry y="26" width="111.55463917525773" height="18.127674750356636" as="geometry" />
        </mxCell>
        <mxCell id="zkfFHV4jXpPFQw0GAbJ--2" value="address" style="text;align=left;verticalAlign=top;spacingLeft=4;spacingRight=4;overflow=hidden;rotatable=0;points=[[0,0.5],[1,0.5]];portConstraint=eastwest;rounded=0;shadow=0;html=0;fontSize=10;" parent="zkfFHV4jXpPFQw0GAbJ--0" vertex="1">
          <mxGeometry y="44.12767475035663" width="111.55463917525773" height="18.127674750356636" as="geometry" />
        </mxCell>
        <mxCell id="oFJWuJIvr5pNURfF1LZ2-0" value="rent" style="text;align=left;verticalAlign=top;spacingLeft=4;spacingRight=4;overflow=hidden;rotatable=0;points=[[0,0.5],[1,0.5]];portConstraint=eastwest;fontSize=10;" parent="zkfFHV4jXpPFQw0GAbJ--0" vertex="1">
          <mxGeometry y="62.255349500713265" width="111.55463917525773" height="18.127674750356636" as="geometry" />
        </mxCell>
        <mxCell id="oFJWuJIvr5pNURfF1LZ2-1" value="nb_rooms" style="text;align=left;verticalAlign=top;spacingLeft=4;spacingRight=4;overflow=hidden;rotatable=0;points=[[0,0.5],[1,0.5]];portConstraint=eastwest;fontSize=10;" parent="zkfFHV4jXpPFQw0GAbJ--0" vertex="1">
          <mxGeometry y="80.3830242510699" width="111.55463917525773" height="18.127674750356636" as="geometry" />
        </mxCell>
        <mxCell id="uKcMFkma33SuD5zO_-8G-11" value="area_m2" style="text;align=left;verticalAlign=top;spacingLeft=4;spacingRight=4;overflow=hidden;rotatable=0;points=[[0,0.5],[1,0.5]];portConstraint=eastwest;fontSize=10;" parent="zkfFHV4jXpPFQw0GAbJ--0" vertex="1">
          <mxGeometry y="98.51069900142653" width="111.55463917525773" height="18.127674750356636" as="geometry" />
        </mxCell>
        <mxCell id="uKcMFkma33SuD5zO_-8G-12" value="date_availability" style="text;align=left;verticalAlign=top;spacingLeft=4;spacingRight=4;overflow=hidden;rotatable=0;points=[[0,0.5],[1,0.5]];portConstraint=eastwest;fontSize=10;" parent="zkfFHV4jXpPFQw0GAbJ--0" vertex="1">
          <mxGeometry y="116.63837375178316" width="111.55463917525773" height="18.127674750356636" as="geometry" />
        </mxCell>
        <mxCell id="zkfFHV4jXpPFQw0GAbJ--13" value="T_Address" style="swimlane;fontStyle=0;align=center;verticalAlign=top;childLayout=stackLayout;horizontal=1;startSize=26;horizontalStack=0;resizeParent=1;resizeLast=0;collapsible=1;marginBottom=0;rounded=0;shadow=0;strokeWidth=1;fontSize=10;" parent="Wz3WdkC-JqPtlDwZwZMD-0" vertex="1">
          <mxGeometry x="660.2640206185567" y="32.07203994293866" width="111.55463917525773" height="116.63837375178316" as="geometry">
            <mxRectangle x="340" y="380" width="170" height="26" as="alternateBounds" />
          </mxGeometry>
        </mxCell>
        <mxCell id="zkfFHV4jXpPFQw0GAbJ--14" value="id_address" style="text;align=left;verticalAlign=top;spacingLeft=4;spacingRight=4;overflow=hidden;rotatable=0;points=[[0,0.5],[1,0.5]];portConstraint=eastwest;fontSize=10;" parent="zkfFHV4jXpPFQw0GAbJ--13" vertex="1">
          <mxGeometry y="26" width="111.55463917525773" height="18.127674750356633" as="geometry" />
        </mxCell>
        <mxCell id="zkfFHV4jXpPFQw0GAbJ--3" value="city" style="text;align=left;verticalAlign=top;spacingLeft=4;spacingRight=4;overflow=hidden;rotatable=0;points=[[0,0.5],[1,0.5]];portConstraint=eastwest;rounded=0;shadow=0;html=0;fontSize=10;" parent="zkfFHV4jXpPFQw0GAbJ--13" vertex="1">
          <mxGeometry y="44.12767475035663" width="111.55463917525773" height="18.127674750356633" as="geometry" />
        </mxCell>
        <mxCell id="zkfFHV4jXpPFQw0GAbJ--5" value="street_address" style="text;align=left;verticalAlign=top;spacingLeft=4;spacingRight=4;overflow=hidden;rotatable=0;points=[[0,0.5],[1,0.5]];portConstraint=eastwest;fontSize=10;" parent="zkfFHV4jXpPFQw0GAbJ--13" vertex="1">
          <mxGeometry y="62.255349500713265" width="111.55463917525773" height="18.127674750356633" as="geometry" />
        </mxCell>
        <mxCell id="bygtFB1MCmcLQMqbbx97-25" value="zip" style="text;align=left;verticalAlign=top;spacingLeft=4;spacingRight=4;overflow=hidden;rotatable=0;points=[[0,0.5],[1,0.5]];portConstraint=eastwest;fontSize=10;" parent="zkfFHV4jXpPFQw0GAbJ--13" vertex="1">
          <mxGeometry y="80.3830242510699" width="111.55463917525773" height="18.127674750356633" as="geometry" />
        </mxCell>
        <mxCell id="bygtFB1MCmcLQMqbbx97-26" value="street_number" style="text;align=left;verticalAlign=top;spacingLeft=4;spacingRight=4;overflow=hidden;rotatable=0;points=[[0,0.5],[1,0.5]];portConstraint=eastwest;fontSize=10;" parent="zkfFHV4jXpPFQw0GAbJ--13" vertex="1">
          <mxGeometry y="98.51069900142653" width="111.55463917525773" height="18.127674750356633" as="geometry" />
        </mxCell>
        <mxCell id="zkfFHV4jXpPFQw0GAbJ--17" value="T_Landlord" style="swimlane;fontStyle=0;align=center;verticalAlign=top;childLayout=stackLayout;horizontal=1;startSize=26;horizontalStack=0;resizeParent=1;resizeLast=0;collapsible=1;marginBottom=0;rounded=0;shadow=0;strokeWidth=1;fontSize=10;" parent="Wz3WdkC-JqPtlDwZwZMD-0" vertex="1">
          <mxGeometry x="657.4751546391752" y="166.63516405135522" width="111.55463917525773" height="98.51069900142653" as="geometry">
            <mxRectangle x="550" y="140" width="160" height="26" as="alternateBounds" />
          </mxGeometry>
        </mxCell>
        <mxCell id="zkfFHV4jXpPFQw0GAbJ--19" value="id_landlord" style="text;align=left;verticalAlign=top;spacingLeft=4;spacingRight=4;overflow=hidden;rotatable=0;points=[[0,0.5],[1,0.5]];portConstraint=eastwest;rounded=0;shadow=0;html=0;fontSize=10;" parent="zkfFHV4jXpPFQw0GAbJ--17" vertex="1">
          <mxGeometry y="26" width="111.55463917525773" height="18.127674750356636" as="geometry" />
        </mxCell>
        <mxCell id="uKcMFkma33SuD5zO_-8G-13" value="address" style="text;align=left;verticalAlign=top;spacingLeft=4;spacingRight=4;overflow=hidden;rotatable=0;points=[[0,0.5],[1,0.5]];portConstraint=eastwest;rounded=0;shadow=0;html=0;fontSize=10;" parent="zkfFHV4jXpPFQw0GAbJ--17" vertex="1">
          <mxGeometry y="44.12767475035663" width="111.55463917525773" height="18.127674750356636" as="geometry" />
        </mxCell>
        <mxCell id="uKcMFkma33SuD5zO_-8G-22" value="mail" style="text;align=left;verticalAlign=top;spacingLeft=4;spacingRight=4;overflow=hidden;rotatable=0;points=[[0,0.5],[1,0.5]];portConstraint=eastwest;rounded=0;shadow=0;html=0;fontSize=10;" parent="zkfFHV4jXpPFQw0GAbJ--17" vertex="1">
          <mxGeometry y="62.255349500713265" width="111.55463917525773" height="18.127674750356636" as="geometry" />
        </mxCell>
        <mxCell id="uKcMFkma33SuD5zO_-8G-27" value="telephone" style="text;align=left;verticalAlign=top;spacingLeft=4;spacingRight=4;overflow=hidden;rotatable=0;points=[[0,0.5],[1,0.5]];portConstraint=eastwest;rounded=0;shadow=0;html=0;fontSize=10;" parent="zkfFHV4jXpPFQw0GAbJ--17" vertex="1">
          <mxGeometry y="80.3830242510699" width="111.55463917525773" height="18.127674750356636" as="geometry" />
        </mxCell>
        <mxCell id="uKcMFkma33SuD5zO_-8G-35" value="T_image" style="swimlane;fontStyle=0;align=center;verticalAlign=top;childLayout=stackLayout;horizontal=1;startSize=26;horizontalStack=0;resizeParent=1;resizeLast=0;collapsible=1;marginBottom=0;rounded=0;shadow=0;strokeWidth=1;fontSize=10;" parent="Wz3WdkC-JqPtlDwZwZMD-0" vertex="1">
          <mxGeometry x="660.2640206185567" y="351.39800285306706" width="111.55463917525773" height="90.63837375178316" as="geometry">
            <mxRectangle x="340" y="380" width="170" height="26" as="alternateBounds" />
          </mxGeometry>
        </mxCell>
        <mxCell id="uKcMFkma33SuD5zO_-8G-36" value="id_image" style="text;align=left;verticalAlign=top;spacingLeft=4;spacingRight=4;overflow=hidden;rotatable=0;points=[[0,0.5],[1,0.5]];portConstraint=eastwest;fontSize=10;" parent="uKcMFkma33SuD5zO_-8G-35" vertex="1">
          <mxGeometry y="26" width="111.55463917525773" height="18.127674750356636" as="geometry" />
        </mxCell>
        <mxCell id="uKcMFkma33SuD5zO_-8G-37" value="picture" style="text;align=left;verticalAlign=top;spacingLeft=4;spacingRight=4;overflow=hidden;rotatable=0;points=[[0,0.5],[1,0.5]];portConstraint=eastwest;rounded=0;shadow=0;html=0;fontSize=10;" parent="uKcMFkma33SuD5zO_-8G-35" vertex="1">
          <mxGeometry y="44.12767475035663" width="111.55463917525773" height="19.522111269614836" as="geometry" />
        </mxCell>
        <mxCell id="6wlXfqNhccEPpByuZ59E-4" value="T_User" style="swimlane;fontStyle=0;align=center;verticalAlign=top;childLayout=stackLayout;horizontal=1;startSize=26;horizontalStack=0;resizeParent=1;resizeLast=0;collapsible=1;marginBottom=0;rounded=0;shadow=0;strokeWidth=1;fontSize=10;" parent="Wz3WdkC-JqPtlDwZwZMD-0" vertex="1">
          <mxGeometry y="284.46504992867335" width="111.55463917525773" height="80.3830242510699" as="geometry">
            <mxRectangle x="340" y="380" width="170" height="26" as="alternateBounds" />
          </mxGeometry>
        </mxCell>
        <mxCell id="6wlXfqNhccEPpByuZ59E-5" value="id_user" style="text;align=left;verticalAlign=top;spacingLeft=4;spacingRight=4;overflow=hidden;rotatable=0;points=[[0,0.5],[1,0.5]];portConstraint=eastwest;fontSize=10;" parent="6wlXfqNhccEPpByuZ59E-4" vertex="1">
          <mxGeometry y="26" width="111.55463917525773" height="18.127674750356636" as="geometry" />
        </mxCell>
        <mxCell id="6wlXfqNhccEPpByuZ59E-6" value="username" style="text;align=left;verticalAlign=top;spacingLeft=4;spacingRight=4;overflow=hidden;rotatable=0;points=[[0,0.5],[1,0.5]];portConstraint=eastwest;rounded=0;shadow=0;html=0;fontSize=10;" parent="6wlXfqNhccEPpByuZ59E-4" vertex="1">
          <mxGeometry y="44.12767475035663" width="111.55463917525773" height="18.127674750356636" as="geometry" />
        </mxCell>
        <mxCell id="6wlXfqNhccEPpByuZ59E-13" value="budget" style="text;align=left;verticalAlign=top;spacingLeft=4;spacingRight=4;overflow=hidden;rotatable=0;points=[[0,0.5],[1,0.5]];portConstraint=eastwest;rounded=0;shadow=0;html=0;fontSize=10;" parent="6wlXfqNhccEPpByuZ59E-4" vertex="1">
          <mxGeometry y="62.255349500713265" width="111.55463917525773" height="18.127674750356636" as="geometry" />
        </mxCell>
        <mxCell id="6wlXfqNhccEPpByuZ59E-8" value="T_Budget" style="swimlane;fontStyle=0;align=center;verticalAlign=top;childLayout=stackLayout;horizontal=1;startSize=26;horizontalStack=0;resizeParent=1;resizeLast=0;collapsible=1;marginBottom=0;rounded=0;shadow=0;strokeWidth=1;fontSize=10;" parent="Wz3WdkC-JqPtlDwZwZMD-0" vertex="1">
          <mxGeometry x="322.81123711340206" y="373.0117689015692" width="111.55463917525773" height="115.73823109843082" as="geometry">
            <mxRectangle x="340" y="380" width="170" height="26" as="alternateBounds" />
          </mxGeometry>
        </mxCell>
        <mxCell id="6wlXfqNhccEPpByuZ59E-9" value="id_budget" style="text;align=left;verticalAlign=top;spacingLeft=4;spacingRight=4;overflow=hidden;rotatable=0;points=[[0,0.5],[1,0.5]];portConstraint=eastwest;fontSize=10;" parent="6wlXfqNhccEPpByuZ59E-8" vertex="1">
          <mxGeometry y="26" width="111.55463917525773" height="18.127674750356636" as="geometry" />
        </mxCell>
        <mxCell id="6wlXfqNhccEPpByuZ59E-14" value="rent" style="text;align=left;verticalAlign=top;spacingLeft=4;spacingRight=4;overflow=hidden;rotatable=0;points=[[0,0.5],[1,0.5]];portConstraint=eastwest;rounded=0;shadow=0;html=0;fontSize=10;" parent="6wlXfqNhccEPpByuZ59E-8" vertex="1">
          <mxGeometry y="44.12767475035663" width="111.55463917525773" height="18.127674750356636" as="geometry" />
        </mxCell>
        <mxCell id="6wlXfqNhccEPpByuZ59E-32" value="new_supply" style="text;align=left;verticalAlign=top;spacingLeft=4;spacingRight=4;overflow=hidden;rotatable=0;points=[[0,0.5],[1,0.5]];portConstraint=eastwest;rounded=0;shadow=0;html=0;fontSize=10;" parent="6wlXfqNhccEPpByuZ59E-8" vertex="1">
          <mxGeometry y="62.255349500713265" width="111.55463917525773" height="18.127674750356636" as="geometry" />
        </mxCell>
        <mxCell id="6wlXfqNhccEPpByuZ59E-33" value="transport" style="text;align=left;verticalAlign=top;spacingLeft=4;spacingRight=4;overflow=hidden;rotatable=0;points=[[0,0.5],[1,0.5]];portConstraint=eastwest;rounded=0;shadow=0;html=0;fontSize=10;" parent="6wlXfqNhccEPpByuZ59E-8" vertex="1">
          <mxGeometry y="80.3830242510699" width="111.55463917525773" height="18.127674750356636" as="geometry" />
        </mxCell>
        <mxCell id="uw-IOv1GwBCniYF-kn2A-4" value="T_User_appartment" style="swimlane;fontStyle=0;align=center;verticalAlign=top;childLayout=stackLayout;horizontal=1;startSize=26;horizontalStack=0;resizeParent=1;resizeLast=0;collapsible=1;marginBottom=0;rounded=0;shadow=0;strokeWidth=1;fontSize=10;" parent="Wz3WdkC-JqPtlDwZwZMD-0" vertex="1">
          <mxGeometry x="167.3319587628866" y="192.0836305278174" width="111.55463917525773" height="98.51069900142653" as="geometry">
            <mxRectangle x="340" y="380" width="170" height="26" as="alternateBounds" />
          </mxGeometry>
        </mxCell>
        <mxCell id="bygtFB1MCmcLQMqbbx97-0" value="id_user_appartment" style="text;align=left;verticalAlign=top;spacingLeft=4;spacingRight=4;overflow=hidden;rotatable=0;points=[[0,0.5],[1,0.5]];portConstraint=eastwest;fontSize=10;" parent="uw-IOv1GwBCniYF-kn2A-4" vertex="1">
          <mxGeometry y="26" width="111.55463917525773" height="18.127674750356636" as="geometry" />
        </mxCell>
        <mxCell id="uw-IOv1GwBCniYF-kn2A-5" value="fk_user" style="text;align=left;verticalAlign=top;spacingLeft=4;spacingRight=4;overflow=hidden;rotatable=0;points=[[0,0.5],[1,0.5]];portConstraint=eastwest;fontSize=10;" parent="uw-IOv1GwBCniYF-kn2A-4" vertex="1">
          <mxGeometry y="44.12767475035663" width="111.55463917525773" height="18.127674750356636" as="geometry" />
        </mxCell>
        <mxCell id="uw-IOv1GwBCniYF-kn2A-6" value="fk_appartment" style="text;align=left;verticalAlign=top;spacingLeft=4;spacingRight=4;overflow=hidden;rotatable=0;points=[[0,0.5],[1,0.5]];portConstraint=eastwest;rounded=0;shadow=0;html=0;fontSize=10;" parent="uw-IOv1GwBCniYF-kn2A-4" vertex="1">
          <mxGeometry y="62.255349500713265" width="111.55463917525773" height="18.127674750356636" as="geometry" />
        </mxCell>
        <mxCell id="uw-IOv1GwBCniYF-kn2A-7" value="date_found" style="text;align=left;verticalAlign=top;spacingLeft=4;spacingRight=4;overflow=hidden;rotatable=0;points=[[0,0.5],[1,0.5]];portConstraint=eastwest;rounded=0;shadow=0;html=0;fontSize=10;" parent="uw-IOv1GwBCniYF-kn2A-4" vertex="1">
          <mxGeometry y="80.3830242510699" width="111.55463917525773" height="18.127674750356636" as="geometry" />
        </mxCell>
        <mxCell id="uw-IOv1GwBCniYF-kn2A-11" style="edgeStyle=none;shape=connector;rounded=0;orthogonalLoop=1;jettySize=auto;html=1;exitX=1;exitY=0.5;exitDx=0;exitDy=0;entryX=0;entryY=0.5;entryDx=0;entryDy=0;labelBackgroundColor=default;strokeColor=default;align=center;verticalAlign=middle;fontFamily=Helvetica;fontSize=10;fontColor=default;endArrow=classic;" parent="Wz3WdkC-JqPtlDwZwZMD-0" source="uw-IOv1GwBCniYF-kn2A-6" target="zkfFHV4jXpPFQw0GAbJ--1" edge="1">
          <mxGeometry relative="1" as="geometry" />
        </mxCell>
        <mxCell id="uw-IOv1GwBCniYF-kn2A-13" style="edgeStyle=none;shape=connector;rounded=0;orthogonalLoop=1;jettySize=auto;html=1;exitX=0;exitY=0.5;exitDx=0;exitDy=0;entryX=1;entryY=0.5;entryDx=0;entryDy=0;labelBackgroundColor=default;strokeColor=default;align=center;verticalAlign=middle;fontFamily=Helvetica;fontSize=10;fontColor=default;endArrow=classic;" parent="Wz3WdkC-JqPtlDwZwZMD-0" source="uw-IOv1GwBCniYF-kn2A-5" target="6wlXfqNhccEPpByuZ59E-5" edge="1">
          <mxGeometry relative="1" as="geometry" />
        </mxCell>
        <mxCell id="uw-IOv1GwBCniYF-kn2A-14" value="T_user_budget" style="swimlane;fontStyle=0;align=center;verticalAlign=top;childLayout=stackLayout;horizontal=1;startSize=26;horizontalStack=0;resizeParent=1;resizeLast=0;collapsible=1;marginBottom=0;rounded=0;shadow=0;strokeWidth=1;fontSize=10;" parent="Wz3WdkC-JqPtlDwZwZMD-0" vertex="1">
          <mxGeometry x="158.26814432989693" y="346.5174750356633" width="111.55463917525773" height="80.3830242510699" as="geometry">
            <mxRectangle x="340" y="380" width="170" height="26" as="alternateBounds" />
          </mxGeometry>
        </mxCell>
        <mxCell id="bygtFB1MCmcLQMqbbx97-4" value="id_user_budget" style="text;align=left;verticalAlign=top;spacingLeft=4;spacingRight=4;overflow=hidden;rotatable=0;points=[[0,0.5],[1,0.5]];portConstraint=eastwest;fontSize=10;" parent="uw-IOv1GwBCniYF-kn2A-14" vertex="1">
          <mxGeometry y="26" width="111.55463917525773" height="18.127674750356636" as="geometry" />
        </mxCell>
        <mxCell id="uw-IOv1GwBCniYF-kn2A-15" value="fk_user" style="text;align=left;verticalAlign=top;spacingLeft=4;spacingRight=4;overflow=hidden;rotatable=0;points=[[0,0.5],[1,0.5]];portConstraint=eastwest;fontSize=10;" parent="uw-IOv1GwBCniYF-kn2A-14" vertex="1">
          <mxGeometry y="44.12767475035663" width="111.55463917525773" height="18.127674750356636" as="geometry" />
        </mxCell>
        <mxCell id="uw-IOv1GwBCniYF-kn2A-16" value="fk_budget" style="text;align=left;verticalAlign=top;spacingLeft=4;spacingRight=4;overflow=hidden;rotatable=0;points=[[0,0.5],[1,0.5]];portConstraint=eastwest;rounded=0;shadow=0;html=0;fontSize=10;" parent="uw-IOv1GwBCniYF-kn2A-14" vertex="1">
          <mxGeometry y="62.255349500713265" width="111.55463917525773" height="18.127674750356636" as="geometry" />
        </mxCell>
        <mxCell id="uw-IOv1GwBCniYF-kn2A-18" style="edgeStyle=none;shape=connector;rounded=0;orthogonalLoop=1;jettySize=auto;html=1;exitX=0;exitY=0.5;exitDx=0;exitDy=0;entryX=1;entryY=0.5;entryDx=0;entryDy=0;labelBackgroundColor=default;strokeColor=default;align=center;verticalAlign=middle;fontFamily=Helvetica;fontSize=10;fontColor=default;endArrow=classic;" parent="Wz3WdkC-JqPtlDwZwZMD-0" source="uw-IOv1GwBCniYF-kn2A-15" target="6wlXfqNhccEPpByuZ59E-5" edge="1">
          <mxGeometry relative="1" as="geometry" />
        </mxCell>
        <mxCell id="uw-IOv1GwBCniYF-kn2A-19" style="edgeStyle=none;shape=connector;rounded=0;orthogonalLoop=1;jettySize=auto;html=1;exitX=1;exitY=0.5;exitDx=0;exitDy=0;entryX=0;entryY=0.5;entryDx=0;entryDy=0;labelBackgroundColor=default;strokeColor=default;align=center;verticalAlign=middle;fontFamily=Helvetica;fontSize=10;fontColor=default;endArrow=classic;" parent="Wz3WdkC-JqPtlDwZwZMD-0" source="uw-IOv1GwBCniYF-kn2A-16" target="6wlXfqNhccEPpByuZ59E-9" edge="1">
          <mxGeometry relative="1" as="geometry" />
        </mxCell>
        <mxCell id="uw-IOv1GwBCniYF-kn2A-20" value="T_appartment_landlord" style="swimlane;fontStyle=0;align=center;verticalAlign=top;childLayout=stackLayout;horizontal=1;startSize=26;horizontalStack=0;resizeParent=1;resizeLast=0;collapsible=1;marginBottom=0;rounded=0;shadow=0;strokeWidth=1;fontSize=10;" parent="Wz3WdkC-JqPtlDwZwZMD-0" vertex="1">
          <mxGeometry x="484.5654639175258" y="169.4240370898716" width="111.55463917525773" height="98.51069900142653" as="geometry">
            <mxRectangle x="340" y="380" width="170" height="26" as="alternateBounds" />
          </mxGeometry>
        </mxCell>
        <mxCell id="bygtFB1MCmcLQMqbbx97-5" value="id_appartment_landlord" style="text;align=left;verticalAlign=top;spacingLeft=4;spacingRight=4;overflow=hidden;rotatable=0;points=[[0,0.5],[1,0.5]];portConstraint=eastwest;fontSize=10;" parent="uw-IOv1GwBCniYF-kn2A-20" vertex="1">
          <mxGeometry y="26" width="111.55463917525773" height="18.127674750356636" as="geometry" />
        </mxCell>
        <mxCell id="uw-IOv1GwBCniYF-kn2A-22" value="fk_appartment" style="text;align=left;verticalAlign=top;spacingLeft=4;spacingRight=4;overflow=hidden;rotatable=0;points=[[0,0.5],[1,0.5]];portConstraint=eastwest;rounded=0;shadow=0;html=0;fontSize=10;" parent="uw-IOv1GwBCniYF-kn2A-20" vertex="1">
          <mxGeometry y="44.12767475035663" width="111.55463917525773" height="18.127674750356636" as="geometry" />
        </mxCell>
        <mxCell id="uw-IOv1GwBCniYF-kn2A-21" value="fk_landlord" style="text;align=left;verticalAlign=top;spacingLeft=4;spacingRight=4;overflow=hidden;rotatable=0;points=[[0,0.5],[1,0.5]];portConstraint=eastwest;fontSize=10;" parent="uw-IOv1GwBCniYF-kn2A-20" vertex="1">
          <mxGeometry y="62.255349500713265" width="111.55463917525773" height="18.127674750356636" as="geometry" />
        </mxCell>
        <mxCell id="uw-IOv1GwBCniYF-kn2A-23" value="date_appartment" style="text;align=left;verticalAlign=top;spacingLeft=4;spacingRight=4;overflow=hidden;rotatable=0;points=[[0,0.5],[1,0.5]];portConstraint=eastwest;rounded=0;shadow=0;html=0;fontSize=10;" parent="uw-IOv1GwBCniYF-kn2A-20" vertex="1">
          <mxGeometry y="80.3830242510699" width="111.55463917525773" height="18.127674750356636" as="geometry" />
        </mxCell>
        <mxCell id="uw-IOv1GwBCniYF-kn2A-25" style="edgeStyle=none;shape=connector;rounded=0;orthogonalLoop=1;jettySize=auto;html=1;exitX=0;exitY=0.5;exitDx=0;exitDy=0;entryX=1;entryY=0.5;entryDx=0;entryDy=0;labelBackgroundColor=default;strokeColor=default;align=center;verticalAlign=middle;fontFamily=Helvetica;fontSize=10;fontColor=default;endArrow=classic;" parent="Wz3WdkC-JqPtlDwZwZMD-0" source="uw-IOv1GwBCniYF-kn2A-22" target="zkfFHV4jXpPFQw0GAbJ--1" edge="1">
          <mxGeometry relative="1" as="geometry" />
        </mxCell>
        <mxCell id="uw-IOv1GwBCniYF-kn2A-26" style="edgeStyle=none;shape=connector;rounded=0;orthogonalLoop=1;jettySize=auto;html=1;exitX=1;exitY=0.5;exitDx=0;exitDy=0;entryX=0;entryY=0.5;entryDx=0;entryDy=0;labelBackgroundColor=default;strokeColor=default;align=center;verticalAlign=middle;fontFamily=Helvetica;fontSize=10;fontColor=default;endArrow=classic;" parent="Wz3WdkC-JqPtlDwZwZMD-0" source="uw-IOv1GwBCniYF-kn2A-21" target="zkfFHV4jXpPFQw0GAbJ--19" edge="1">
          <mxGeometry relative="1" as="geometry" />
        </mxCell>
        <mxCell id="uw-IOv1GwBCniYF-kn2A-27" value="T_appartment_address" style="swimlane;fontStyle=0;align=center;verticalAlign=top;childLayout=stackLayout;horizontal=1;startSize=26;horizontalStack=0;resizeParent=1;resizeLast=0;collapsible=1;marginBottom=0;rounded=0;shadow=0;strokeWidth=1;fontSize=10;" parent="Wz3WdkC-JqPtlDwZwZMD-0" vertex="1">
          <mxGeometry x="484.5654639175258" y="57.17189728958631" width="111.55463917525773" height="80.3830242510699" as="geometry">
            <mxRectangle x="340" y="380" width="170" height="26" as="alternateBounds" />
          </mxGeometry>
        </mxCell>
        <mxCell id="bygtFB1MCmcLQMqbbx97-8" value="id_appartment_address" style="text;align=left;verticalAlign=top;spacingLeft=4;spacingRight=4;overflow=hidden;rotatable=0;points=[[0,0.5],[1,0.5]];portConstraint=eastwest;fontSize=10;" parent="uw-IOv1GwBCniYF-kn2A-27" vertex="1">
          <mxGeometry y="26" width="111.55463917525773" height="18.127674750356636" as="geometry" />
        </mxCell>
        <mxCell id="uw-IOv1GwBCniYF-kn2A-28" value="fk_appartment" style="text;align=left;verticalAlign=top;spacingLeft=4;spacingRight=4;overflow=hidden;rotatable=0;points=[[0,0.5],[1,0.5]];portConstraint=eastwest;fontSize=10;" parent="uw-IOv1GwBCniYF-kn2A-27" vertex="1">
          <mxGeometry y="44.12767475035663" width="111.55463917525773" height="18.127674750356636" as="geometry" />
        </mxCell>
        <mxCell id="uw-IOv1GwBCniYF-kn2A-29" value="fk_address" style="text;align=left;verticalAlign=top;spacingLeft=4;spacingRight=4;overflow=hidden;rotatable=0;points=[[0,0.5],[1,0.5]];portConstraint=eastwest;rounded=0;shadow=0;html=0;fontSize=10;" parent="uw-IOv1GwBCniYF-kn2A-27" vertex="1">
          <mxGeometry y="62.255349500713265" width="111.55463917525773" height="18.127674750356636" as="geometry" />
        </mxCell>
        <mxCell id="uw-IOv1GwBCniYF-kn2A-31" style="edgeStyle=none;shape=connector;rounded=0;orthogonalLoop=1;jettySize=auto;html=1;exitX=0;exitY=0.5;exitDx=0;exitDy=0;entryX=1;entryY=0.5;entryDx=0;entryDy=0;labelBackgroundColor=default;strokeColor=default;align=center;verticalAlign=middle;fontFamily=Helvetica;fontSize=10;fontColor=default;endArrow=classic;" parent="Wz3WdkC-JqPtlDwZwZMD-0" source="uw-IOv1GwBCniYF-kn2A-28" target="zkfFHV4jXpPFQw0GAbJ--1" edge="1">
          <mxGeometry relative="1" as="geometry" />
        </mxCell>
        <mxCell id="uw-IOv1GwBCniYF-kn2A-32" style="edgeStyle=none;shape=connector;rounded=0;orthogonalLoop=1;jettySize=auto;html=1;exitX=1;exitY=0.5;exitDx=0;exitDy=0;entryX=0;entryY=0.5;entryDx=0;entryDy=0;labelBackgroundColor=default;strokeColor=default;align=center;verticalAlign=middle;fontFamily=Helvetica;fontSize=10;fontColor=default;endArrow=classic;" parent="Wz3WdkC-JqPtlDwZwZMD-0" source="uw-IOv1GwBCniYF-kn2A-29" target="zkfFHV4jXpPFQw0GAbJ--14" edge="1">
          <mxGeometry relative="1" as="geometry" />
        </mxCell>
        <mxCell id="uw-IOv1GwBCniYF-kn2A-33" value="T_appartment_image" style="swimlane;fontStyle=0;align=center;verticalAlign=top;childLayout=stackLayout;horizontal=1;startSize=26;horizontalStack=0;resizeParent=1;resizeLast=0;collapsible=1;marginBottom=0;rounded=0;shadow=0;strokeWidth=1;fontSize=10;" parent="Wz3WdkC-JqPtlDwZwZMD-0" vertex="1">
          <mxGeometry x="484.5654639175258" y="299.10663338088443" width="111.55463917525773" height="99.90513552068474" as="geometry">
            <mxRectangle x="340" y="380" width="170" height="26" as="alternateBounds" />
          </mxGeometry>
        </mxCell>
        <mxCell id="bygtFB1MCmcLQMqbbx97-6" value="id_apaprtment_image" style="text;align=left;verticalAlign=top;spacingLeft=4;spacingRight=4;overflow=hidden;rotatable=0;points=[[0,0.5],[1,0.5]];portConstraint=eastwest;fontSize=10;" parent="uw-IOv1GwBCniYF-kn2A-33" vertex="1">
          <mxGeometry y="26" width="111.55463917525773" height="18.127674750356636" as="geometry" />
        </mxCell>
        <mxCell id="uw-IOv1GwBCniYF-kn2A-34" value="fk_appartment" style="text;align=left;verticalAlign=top;spacingLeft=4;spacingRight=4;overflow=hidden;rotatable=0;points=[[0,0.5],[1,0.5]];portConstraint=eastwest;fontSize=10;" parent="uw-IOv1GwBCniYF-kn2A-33" vertex="1">
          <mxGeometry y="44.12767475035663" width="111.55463917525773" height="18.127674750356636" as="geometry" />
        </mxCell>
        <mxCell id="uw-IOv1GwBCniYF-kn2A-35" value="fk_image" style="text;align=left;verticalAlign=top;spacingLeft=4;spacingRight=4;overflow=hidden;rotatable=0;points=[[0,0.5],[1,0.5]];portConstraint=eastwest;rounded=0;shadow=0;html=0;fontSize=10;" parent="uw-IOv1GwBCniYF-kn2A-33" vertex="1">
          <mxGeometry y="62.255349500713265" width="111.55463917525773" height="19.522111269614836" as="geometry" />
        </mxCell>
        <mxCell id="uw-IOv1GwBCniYF-kn2A-36" value="date_image" style="text;align=left;verticalAlign=top;spacingLeft=4;spacingRight=4;overflow=hidden;rotatable=0;points=[[0,0.5],[1,0.5]];portConstraint=eastwest;fontSize=10;" parent="uw-IOv1GwBCniYF-kn2A-33" vertex="1">
          <mxGeometry y="81.7774607703281" width="111.55463917525773" height="18.127674750356636" as="geometry" />
        </mxCell>
        <mxCell id="uw-IOv1GwBCniYF-kn2A-37" style="edgeStyle=none;shape=connector;rounded=0;orthogonalLoop=1;jettySize=auto;html=1;exitX=0;exitY=0.5;exitDx=0;exitDy=0;entryX=1;entryY=0.5;entryDx=0;entryDy=0;labelBackgroundColor=default;strokeColor=default;align=center;verticalAlign=middle;fontFamily=Helvetica;fontSize=10;fontColor=default;endArrow=classic;" parent="Wz3WdkC-JqPtlDwZwZMD-0" source="uw-IOv1GwBCniYF-kn2A-34" target="zkfFHV4jXpPFQw0GAbJ--1" edge="1">
          <mxGeometry relative="1" as="geometry" />
        </mxCell>
        <mxCell id="uw-IOv1GwBCniYF-kn2A-38" style="edgeStyle=none;shape=connector;rounded=0;orthogonalLoop=1;jettySize=auto;html=1;exitX=1;exitY=0.5;exitDx=0;exitDy=0;entryX=0;entryY=0.5;entryDx=0;entryDy=0;labelBackgroundColor=default;strokeColor=default;align=center;verticalAlign=middle;fontFamily=Helvetica;fontSize=10;fontColor=default;endArrow=classic;" parent="Wz3WdkC-JqPtlDwZwZMD-0" source="uw-IOv1GwBCniYF-kn2A-35" target="uKcMFkma33SuD5zO_-8G-36" edge="1">
          <mxGeometry relative="1" as="geometry" />
        </mxCell>
        <mxCell id="uw-IOv1GwBCniYF-kn2A-39" value="T_landlord_image" style="swimlane;fontStyle=0;align=center;verticalAlign=top;childLayout=stackLayout;horizontal=1;startSize=26;horizontalStack=0;resizeParent=1;resizeLast=0;collapsible=1;marginBottom=0;rounded=0;shadow=0;strokeWidth=1;fontSize=10;" parent="Wz3WdkC-JqPtlDwZwZMD-0" vertex="1">
          <mxGeometry x="819.2293814432991" y="298.4094151212554" width="111.55463917525773" height="99.90513552068474" as="geometry">
            <mxRectangle x="340" y="380" width="170" height="26" as="alternateBounds" />
          </mxGeometry>
        </mxCell>
        <mxCell id="bygtFB1MCmcLQMqbbx97-7" value="id_landlord_image" style="text;align=left;verticalAlign=top;spacingLeft=4;spacingRight=4;overflow=hidden;rotatable=0;points=[[0,0.5],[1,0.5]];portConstraint=eastwest;fontSize=10;" parent="uw-IOv1GwBCniYF-kn2A-39" vertex="1">
          <mxGeometry y="26" width="111.55463917525773" height="18.127674750356636" as="geometry" />
        </mxCell>
        <mxCell id="uw-IOv1GwBCniYF-kn2A-40" value="fk_landlord" style="text;align=left;verticalAlign=top;spacingLeft=4;spacingRight=4;overflow=hidden;rotatable=0;points=[[0,0.5],[1,0.5]];portConstraint=eastwest;fontSize=10;" parent="uw-IOv1GwBCniYF-kn2A-39" vertex="1">
          <mxGeometry y="44.12767475035663" width="111.55463917525773" height="18.127674750356636" as="geometry" />
        </mxCell>
        <mxCell id="uw-IOv1GwBCniYF-kn2A-41" value="fk_image" style="text;align=left;verticalAlign=top;spacingLeft=4;spacingRight=4;overflow=hidden;rotatable=0;points=[[0,0.5],[1,0.5]];portConstraint=eastwest;rounded=0;shadow=0;html=0;fontSize=10;" parent="uw-IOv1GwBCniYF-kn2A-39" vertex="1">
          <mxGeometry y="62.255349500713265" width="111.55463917525773" height="19.522111269614836" as="geometry" />
        </mxCell>
        <mxCell id="uw-IOv1GwBCniYF-kn2A-42" value="date_image" style="text;align=left;verticalAlign=top;spacingLeft=4;spacingRight=4;overflow=hidden;rotatable=0;points=[[0,0.5],[1,0.5]];portConstraint=eastwest;fontSize=10;" parent="uw-IOv1GwBCniYF-kn2A-39" vertex="1">
          <mxGeometry y="81.7774607703281" width="111.55463917525773" height="18.127674750356636" as="geometry" />
        </mxCell>
        <mxCell id="uw-IOv1GwBCniYF-kn2A-44" style="edgeStyle=none;shape=connector;rounded=0;orthogonalLoop=1;jettySize=auto;html=1;exitX=0;exitY=0.5;exitDx=0;exitDy=0;entryX=1;entryY=0.5;entryDx=0;entryDy=0;labelBackgroundColor=default;strokeColor=default;align=center;verticalAlign=middle;fontFamily=Helvetica;fontSize=10;fontColor=default;endArrow=classic;" parent="Wz3WdkC-JqPtlDwZwZMD-0" source="uw-IOv1GwBCniYF-kn2A-41" target="uKcMFkma33SuD5zO_-8G-36" edge="1">
          <mxGeometry relative="1" as="geometry" />
        </mxCell>
        <mxCell id="uw-IOv1GwBCniYF-kn2A-46" style="edgeStyle=none;shape=connector;rounded=0;orthogonalLoop=1;jettySize=auto;html=1;exitX=0;exitY=0.5;exitDx=0;exitDy=0;entryX=1;entryY=0.5;entryDx=0;entryDy=0;labelBackgroundColor=default;strokeColor=default;align=center;verticalAlign=middle;fontFamily=Helvetica;fontSize=10;fontColor=default;endArrow=classic;" parent="Wz3WdkC-JqPtlDwZwZMD-0" source="uw-IOv1GwBCniYF-kn2A-40" target="zkfFHV4jXpPFQw0GAbJ--19" edge="1">
          <mxGeometry relative="1" as="geometry" />
        </mxCell>
        <mxCell id="bygtFB1MCmcLQMqbbx97-9" value="group" style="swimlane;fontStyle=0;align=center;verticalAlign=top;childLayout=stackLayout;horizontal=1;startSize=26;horizontalStack=0;resizeParent=1;resizeLast=0;collapsible=1;marginBottom=0;rounded=0;shadow=0;strokeWidth=1;fontSize=10;" parent="Wz3WdkC-JqPtlDwZwZMD-0" vertex="1">
          <mxGeometry x="1004.688969072165" y="149.2047075606277" width="145.02103092783506" height="77.39122681883025" as="geometry">
            <mxRectangle x="340" y="380" width="170" height="26" as="alternateBounds" />
          </mxGeometry>
        </mxCell>
        <mxCell id="bygtFB1MCmcLQMqbbx97-10" value="id_group" style="text;align=left;verticalAlign=top;spacingLeft=4;spacingRight=4;overflow=hidden;rotatable=0;points=[[0,0.5],[1,0.5]];portConstraint=eastwest;fontSize=10;" parent="bygtFB1MCmcLQMqbbx97-9" vertex="1">
          <mxGeometry y="26" width="145.02103092783506" height="18.127674750356636" as="geometry" />
        </mxCell>
        <mxCell id="bygtFB1MCmcLQMqbbx97-12" value="group" style="text;align=left;verticalAlign=top;spacingLeft=4;spacingRight=4;overflow=hidden;rotatable=0;points=[[0,0.5],[1,0.5]];portConstraint=eastwest;rounded=0;shadow=0;html=0;fontSize=10;" parent="bygtFB1MCmcLQMqbbx97-9" vertex="1">
          <mxGeometry y="44.12767475035663" width="145.02103092783506" height="19.522111269614836" as="geometry" />
        </mxCell>
        <mxCell id="bygtFB1MCmcLQMqbbx97-22" style="rounded=0;orthogonalLoop=1;jettySize=auto;html=1;exitX=0;exitY=0.5;exitDx=0;exitDy=0;entryX=1;entryY=0.5;entryDx=0;entryDy=0;fontSize=10;" parent="Wz3WdkC-JqPtlDwZwZMD-0" source="bygtFB1MCmcLQMqbbx97-17" target="zkfFHV4jXpPFQw0GAbJ--19" edge="1">
          <mxGeometry relative="1" as="geometry" />
        </mxCell>
        <mxCell id="bygtFB1MCmcLQMqbbx97-17" value="T_landlord_group" style="swimlane;fontStyle=0;align=center;verticalAlign=top;childLayout=stackLayout;horizontal=1;startSize=26;horizontalStack=0;resizeParent=1;resizeLast=0;collapsible=1;marginBottom=0;rounded=0;shadow=0;strokeWidth=1;fontSize=10;" parent="Wz3WdkC-JqPtlDwZwZMD-0" vertex="1">
          <mxGeometry x="848.5124742268041" y="122.71041369472182" width="111.55463917525773" height="81.7774607703281" as="geometry">
            <mxRectangle x="340" y="380" width="170" height="26" as="alternateBounds" />
          </mxGeometry>
        </mxCell>
        <mxCell id="bygtFB1MCmcLQMqbbx97-18" value="id_landlord_group" style="text;align=left;verticalAlign=top;spacingLeft=4;spacingRight=4;overflow=hidden;rotatable=0;points=[[0,0.5],[1,0.5]];portConstraint=eastwest;fontSize=10;" parent="bygtFB1MCmcLQMqbbx97-17" vertex="1">
          <mxGeometry y="26" width="111.55463917525773" height="18.127674750356636" as="geometry" />
        </mxCell>
        <mxCell id="bygtFB1MCmcLQMqbbx97-19" value="fk_landlord" style="text;align=left;verticalAlign=top;spacingLeft=4;spacingRight=4;overflow=hidden;rotatable=0;points=[[0,0.5],[1,0.5]];portConstraint=eastwest;fontSize=10;" parent="bygtFB1MCmcLQMqbbx97-17" vertex="1">
          <mxGeometry y="44.12767475035663" width="111.55463917525773" height="18.127674750356636" as="geometry" />
        </mxCell>
        <mxCell id="bygtFB1MCmcLQMqbbx97-20" value="fk_group" style="text;align=left;verticalAlign=top;spacingLeft=4;spacingRight=4;overflow=hidden;rotatable=0;points=[[0,0.5],[1,0.5]];portConstraint=eastwest;rounded=0;shadow=0;html=0;fontSize=10;" parent="bygtFB1MCmcLQMqbbx97-17" vertex="1">
          <mxGeometry y="62.255349500713265" width="111.55463917525773" height="19.522111269614836" as="geometry" />
        </mxCell>
        <mxCell id="bygtFB1MCmcLQMqbbx97-23" style="rounded=0;orthogonalLoop=1;jettySize=auto;html=1;exitX=1;exitY=0.5;exitDx=0;exitDy=0;entryX=0;entryY=0.5;entryDx=0;entryDy=0;fontSize=10;" parent="Wz3WdkC-JqPtlDwZwZMD-0" source="bygtFB1MCmcLQMqbbx97-20" target="bygtFB1MCmcLQMqbbx97-10" edge="1">
          <mxGeometry relative="1" as="geometry" />
        </mxCell>
        <mxCell id="bygtFB1MCmcLQMqbbx97-27" value="T_landlord_address" style="swimlane;fontStyle=0;align=center;verticalAlign=top;childLayout=stackLayout;horizontal=1;startSize=26;horizontalStack=0;resizeParent=1;resizeLast=0;collapsible=1;marginBottom=0;rounded=0;shadow=0;strokeWidth=1;fontSize=10;" parent="Wz3WdkC-JqPtlDwZwZMD-0" vertex="1">
          <mxGeometry x="848.5124742268041" width="111.55463917525773" height="80.3830242510699" as="geometry">
            <mxRectangle x="340" y="380" width="170" height="26" as="alternateBounds" />
          </mxGeometry>
        </mxCell>
        <mxCell id="bygtFB1MCmcLQMqbbx97-28" value="id_landlord_address" style="text;align=left;verticalAlign=top;spacingLeft=4;spacingRight=4;overflow=hidden;rotatable=0;points=[[0,0.5],[1,0.5]];portConstraint=eastwest;fontSize=10;" parent="bygtFB1MCmcLQMqbbx97-27" vertex="1">
          <mxGeometry y="26" width="111.55463917525773" height="18.127674750356636" as="geometry" />
        </mxCell>
        <mxCell id="bygtFB1MCmcLQMqbbx97-29" value="fk_landlord" style="text;align=left;verticalAlign=top;spacingLeft=4;spacingRight=4;overflow=hidden;rotatable=0;points=[[0,0.5],[1,0.5]];portConstraint=eastwest;fontSize=10;" parent="bygtFB1MCmcLQMqbbx97-27" vertex="1">
          <mxGeometry y="44.12767475035663" width="111.55463917525773" height="18.127674750356636" as="geometry" />
        </mxCell>
        <mxCell id="bygtFB1MCmcLQMqbbx97-30" value="fk_address" style="text;align=left;verticalAlign=top;spacingLeft=4;spacingRight=4;overflow=hidden;rotatable=0;points=[[0,0.5],[1,0.5]];portConstraint=eastwest;rounded=0;shadow=0;html=0;fontSize=10;" parent="bygtFB1MCmcLQMqbbx97-27" vertex="1">
          <mxGeometry y="62.255349500713265" width="111.55463917525773" height="18.127674750356636" as="geometry" />
        </mxCell>
        <mxCell id="bygtFB1MCmcLQMqbbx97-31" style="rounded=0;orthogonalLoop=1;jettySize=auto;html=1;exitX=0;exitY=0.5;exitDx=0;exitDy=0;entryX=1;entryY=0.5;entryDx=0;entryDy=0;fontSize=10;" parent="Wz3WdkC-JqPtlDwZwZMD-0" source="bygtFB1MCmcLQMqbbx97-29" target="zkfFHV4jXpPFQw0GAbJ--19" edge="1">
          <mxGeometry relative="1" as="geometry" />
        </mxCell>
        <mxCell id="bygtFB1MCmcLQMqbbx97-32" style="rounded=0;orthogonalLoop=1;jettySize=auto;html=1;exitX=0;exitY=0.5;exitDx=0;exitDy=0;entryX=1;entryY=0.5;entryDx=0;entryDy=0;fontSize=10;" parent="Wz3WdkC-JqPtlDwZwZMD-0" source="bygtFB1MCmcLQMqbbx97-28" target="zkfFHV4jXpPFQw0GAbJ--14" edge="1">
          <mxGeometry relative="1" as="geometry" />
        </mxCell>
      </root>
    </mxGraphModel>
  </diagram>
</mxfile>
